0
SECTION
2
HEADER
0
ENDSEC
0
SECTION
2
TABLES
0
TABLE
2
LTYPE
0
LTYPE
2
Continuous
70
0
3
Solid line
72
65
73
0
40
0.000000
0
ENDTAB
0
TABLE
2
LAYER
0
LAYER
2
0
70
0
62
7
6
Continuous
0
LAYER
2
Airfoils
70
0
62
7
6
Continuous
0
LAYER
2
Background
70
0
62
7
6
Continuous
0
ENDTAB
0
TABLE
2
STYLE
0
STYLE
2
Standard
3
Arial
70
0
71
0
40
5.000000
41
1.000000
42
5.000000
50
0.000000
0
ENDTAB
0
TABLE
2
DIMSTYLE
0
DIMSTYLE
2
Standard
70
0
3

4

5

6
CLOSEDFILLED
7
CLOSEDFILLED
40
1.000000
41
2.000000
42
1.000000
43
5.000000
44
2.000000
45
0.000000
46
0.000000
47
0.000000
48
0.000000
140
5.000000
141
2.000000
142
0.000000
143
25.400000
144
1.000000
145
0.000000
146
1.000000
147
2.000000
71
0
72
0
73
0
74
1
75
0
76
0
77
0
78
0
170
0
171
4
172
0
173
1
174
0
175
0
176
0
177
-2
178
-2
271
4
272
4
273
1
274
4
275
0
280
0
281
0
282
0
283
1
288
0
0
ENDTAB
0
ENDSEC
0
SECTION
2
BLOCKS
0
BLOCK
8
0
2
_CLOSEDFILLED
70
0
10
0.000000
20
0.000000
3
_CLOSEDFILLED
0
SOLID
8
0
10
-1.000000
20
0.166667
30
0.000000
11
-1.000000
21
-0.166667
31
0.000000
12
0.000000
22
0.000000
32
0.000000
13
0.000000
23
0.000000
33
0.000000
0
ENDBLK
0
BLOCK
8
0
2
_CLOSEDBLANK
70
0
10
0.000000
20
0.000000
3
_CLOSEDBLANK
0
LINE
8
0
10
-1.000000
20
0.166667
30
0.000000
11
0.000000
21
0.000000
31
0.000000
0
LINE
8
0
10
0.000000
20
0.000000
30
0.000000
11
-1.000000
21
-0.166667
31
0.000000
0
LINE
8
0
10
-1.000000
20
0.166667
30
0.000000
11
-1.000000
21
-0.166667
31
0.000000
0
ENDBLK
0
BLOCK
8
0
2
_CLOSED
70
0
10
0.000000
20
0.000000
3
_CLOSED
0
LINE
8
0
10
-1.000000
20
0.166667
30
0.000000
11
0.000000
21
0.000000
31
0.000000
0
LINE
8
0
10
0.000000
20
0.000000
30
0.000000
11
-1.000000
21
-0.166667
31
0.000000
0
LINE
8
0
10
-1.000000
20
0.166667
30
0.000000
11
-1.000000
21
-0.166667
31
0.000000
0
LINE
8
0
10
0.000000
20
0.000000
30
0.000000
11
-1.000000
21
0.000000
31
0.000000
0
ENDBLK
0
BLOCK
8
0
2
_DOT
70
0
10
0.000000
20
0.000000
3
_DOT
0
POLYLINE
8
0
70
1
66
 1
10
0.0
20
0.0
30
0.000000
0
VERTEX
8
0
10
0.250000
20
0.000000
30
0.000000
42
1.000000
0
VERTEX
8
0
10
-0.250000
20
0.000000
30
0.000000
42
1.000000
0
SEQEND
8
0
0
LINE
8
0
10
-0.500000
20
0.000000
30
0.000000
11
-1.000000
21
0.000000
31
0.000000
0
ENDBLK
0
BLOCK
8
0
2
_ARCHTICK
70
0
10
0.000000
20
0.000000
3
_ARCHTICK
0
POLYLINE
8
0
70
0
66
 1
10
0.0
20
0.0
30
0.000000
0
VERTEX
8
0
10
0.500000
20
0.500000
30
0.000000
0
VERTEX
8
0
10
-0.500000
20
-0.500000
30
0.000000
0
SEQEND
8
0
0
ENDBLK
0
BLOCK
8
0
2
_OBLIQUE
70
0
10
0.000000
20
0.000000
3
_OBLIQUE
0
LINE
8
0
10
-0.500000
20
-0.500000
30
0.000000
11
0.500000
21
0.500000
31
0.000000
0
ENDBLK
0
BLOCK
8
0
2
_OPEN
70
0
10
0.000000
20
0.000000
3
_OPEN
0
LINE
8
0
10
-1.000000
20
0.166667
30
0.000000
11
0.000000
21
0.000000
31
0.000000
0
LINE
8
0
10
-1.000000
20
-0.166667
30
0.000000
11
0.000000
21
0.000000
31
0.000000
0
LINE
8
0
10
0.000000
20
0.000000
30
0.000000
11
-1.000000
21
0.000000
31
0.000000
0
ENDBLK
0
BLOCK
8
0
2
_ORIGIN
70
0
10
0.000000
20
0.000000
3
_ORIGIN
0
CIRCLE
8
0
10
0.000000
20
0.000000
40
0.500000
0
LINE
8
0
10
0.000000
20
0.000000
30
0.000000
11
-1.000000
21
0.000000
31
0.000000
0
ENDBLK
0
BLOCK
8
0
2
_ORIGIN2
70
0
10
0.000000
20
0.000000
3
_ORIGIN2
0
CIRCLE
8
0
10
0.000000
20
0.000000
40
0.500000
0
CIRCLE
8
0
10
0.000000
20
0.000000
40
0.250000
0
LINE
8
0
10
-0.500000
20
0.000000
30
0.000000
11
-1.000000
21
0.000000
31
0.000000
0
ENDBLK
0
BLOCK
8
0
2
_OPEN90
70
0
10
0.000000
20
0.000000
3
_OPEN90
0
LINE
8
0
10
-0.500000
20
0.500000
30
0.000000
11
0.000000
21
0.000000
31
0.000000
0
LINE
8
0
10
0.000000
20
0.000000
30
0.000000
11
-0.500000
21
-0.500000
31
0.000000
0
LINE
8
0
10
0.000000
20
0.000000
30
0.000000
11
-1.000000
21
0.000000
31
0.000000
0
ENDBLK
0
BLOCK
8
0
2
_OPEN30
70
0
10
0.000000
20
0.000000
3
_OPEN30
0
LINE
8
0
10
-1.000000
20
0.267949
30
0.000000
11
0.000000
21
0.000000
31
0.000000
0
LINE
8
0
10
0.000000
20
0.000000
30
0.000000
11
-1.000000
21
-0.267949
31
0.000000
0
LINE
8
0
10
0.000000
20
0.000000
30
0.000000
11
-1.000000
21
0.000000
31
0.000000
0
ENDBLK
0
BLOCK
8
0
2
_DOTSMALL
70
0
10
0.000000
20
0.000000
3
_DOTSMALL
0
POLYLINE
8
0
70
1
66
 1
10
0.0
20
0.0
30
0.000000
0
VERTEX
8
0
10
0.062500
20
0.000000
30
0.000000
42
1.000000
0
VERTEX
8
0
10
-0.062500
20
0.000000
30
0.000000
42
1.000000
0
SEQEND
8
0
0
ENDBLK
0
BLOCK
8
0
2
_DOTBLANK
70
0
10
0.000000
20
0.000000
3
_DOTBLANK
0
CIRCLE
8
0
10
0.000000
20
0.000000
40
0.500000
0
LINE
8
0
10
-0.500000
20
0.000000
30
0.000000
11
-1.000000
21
0.000000
31
0.000000
0
ENDBLK
0
BLOCK
8
0
2
_SMALL
70
0
10
0.000000
20
0.000000
3
_SMALL
0
CIRCLE
8
0
10
0.000000
20
0.000000
40
0.250000
0
ENDBLK
0
BLOCK
8
0
2
_BOXBLANK
70
0
10
0.000000
20
0.000000
3
_BOXBLANK
0
LINE
8
0
10
-0.500000
20
-0.500000
30
0.000000
11
0.500000
21
-0.500000
31
0.000000
0
LINE
8
0
10
0.500000
20
-0.500000
30
0.000000
11
0.500000
21
0.500000
31
0.000000
0
LINE
8
0
10
0.500000
20
0.500000
30
0.000000
11
-0.500000
21
0.500000
31
0.000000
0
LINE
8
0
10
-0.500000
20
0.500000
30
0.000000
11
-0.500000
21
-0.500000
31
0.000000
0
LINE
8
0
10
-0.500000
20
0.000000
30
0.000000
11
-1.000000
21
0.000000
31
0.000000
0
ENDBLK
0
BLOCK
8
0
2
_BOXFILLED
70
0
10
0.000000
20
0.000000
3
_BOXFILLED
0
SOLID
8
0
10
-0.500000
20
0.500000
30
0.000000
11
0.500000
21
0.500000
31
0.000000
12
-0.500000
22
-0.500000
32
0.000000
13
0.500000
23
-0.500000
33
0.000000
0
LINE
8
0
10
-0.500000
20
0.000000
30
0.000000
11
-1.000000
21
0.000000
31
0.000000
0
ENDBLK
0
BLOCK
8
0
2
_DATUMBLANK
70
0
10
0.000000
20
0.000000
3
_DATUMBLANK
0
LINE
8
0
10
0.000000
20
0.577350
30
0.000000
11
-1.000000
21
0.000000
31
0.000000
0
LINE
8
0
10
-1.000000
20
0.000000
30
0.000000
11
0.000000
21
-0.577350
31
0.000000
0
LINE
8
0
10
0.000000
20
-0.577350
30
0.000000
11
0.000000
21
0.577350
31
0.000000
0
ENDBLK
0
BLOCK
8
0
2
_DATUMFILLED
70
0
10
0.000000
20
0.000000
3
_DATUMFILLED
0
SOLID
8
0
10
0.000000
20
0.577350
30
0.000000
11
-1.000000
21
0.000000
31
0.000000
12
0.000000
22
-0.577350
32
0.000000
13
0.000000
23
-0.577350
33
0.000000
0
ENDBLK
0
BLOCK
8
0
2
_INTEGRAL
70
0
10
0.000000
20
0.000000
3
_INTEGRAL
0
ARC
8
0
10
0.444888
20
-0.091335
40
0.454167
50
102.000000
51
168.000000
0
ARC
8
0
10
-0.444888
20
0.091335
40
0.454167
50
282.000000
51
348.000000
0
ENDBLK
0
BLOCK
8
0
2
_NONE
70
0
10
0.000000
20
0.000000
3
_NONE
0
ENDBLK
0
BLOCK
8
Airfoils
2
*B
70
1
10
1134.489634
20
103.070982
3
*B
0
LINE
8
Airfoils
62
7
6
Continuous
10
1134.489633
20
93.454982
30
0.000000
11
1134.489633
21
64.294981
31
0.000000
0
LINE
8
Airfoils
62
7
6
Continuous
10
1134.489633
20
113.134981
30
0.000000
11
1134.489633
21
142.294983
31
0.000000
0
LINE
8
Airfoils
6
Continuous
10
1148.999999
20
64.294982
30
0.000000
11
1132.489638
21
64.294982
31
0.000000
0
LINE
8
Airfoils
6
Continuous
10
1148.999999
20
142.294979
30
0.000000
11
1132.489638
21
142.294979
31
0.000000
0
INSERT
8
Airfoils
6
Continuous
2
*B1
10
0.000000
20
0.000000
41
1.000000
42
1.000000
50
0.000000
0
INSERT
8
Airfoils
6
Continuous
2
_CLOSEDFILLED
10
1134.489634
20
64.294982
41
8.000000
42
8.000000
50
-90.000000
0
INSERT
8
Airfoils
6
Continuous
2
_CLOSEDFILLED
10
1134.489634
20
142.294982
41
8.000000
42
8.000000
50
90.000000
0
POINT
8
Airfoils
6
Continuous
10
1150.000000
20
64.294982
0
POINT
8
Airfoils
6
Continuous
10
1150.000000
20
142.294982
0
ENDBLK
0
BLOCK
8
Airfoils
2
*B1
70
1
10
0.000000
20
0.000000
3
*B1
0
TEXT
8
Airfoils
6
Continuous
7
Standard
10
1134.489634
20
103.294982
72
4
73
0
11
1134.489634
21
103.294982
40
9.333333
41
1.000000
50
0.000000
1
78
0
ENDBLK
0
BLOCK
8
0
2
*R
70
1
10
575.000000
20
119.850555
3
*R
0
POLYLINE
8
0
6
Continuous
70
0
66
 1
10
0.0
20
0.0
30
0.000000
0
VERTEX
8
0
10
1150.000000
20
64.294982
30
0.000000
0
VERTEX
8
0
10
0.000000
20
0.000000
30
0.000000
0
VERTEX
8
0
10
-0.000000
20
235.000000
30
0.000000
0
VERTEX
8
0
10
7.697714
20
235.126259
30
0.000000
0
VERTEX
8
0
10
15.511728
20
235.257645
30
0.000000
0
VERTEX
8
0
10
23.439756
20
235.393718
30
0.000000
0
VERTEX
8
0
10
31.479512
20
235.534037
30
0.000000
0
VERTEX
8
0
10
39.628708
20
235.678160
30
0.000000
0
VERTEX
8
0
10
47.885059
20
235.825647
30
0.000000
0
VERTEX
8
0
10
56.246277
20
235.976056
30
0.000000
0
VERTEX
8
0
10
64.710076
20
236.128947
30
0.000000
0
VERTEX
8
0
10
73.274169
20
236.283879
30
0.000000
0
VERTEX
8
0
10
81.324061
20
236.429361
30
0.000000
0
VERTEX
8
0
10
89.456826
20
236.575871
30
0.000000
0
VERTEX
8
0
10
97.670625
20
236.723056
30
0.000000
0
VERTEX
8
0
10
105.963622
20
236.870560
30
0.000000
0
VERTEX
8
0
10
114.333979
20
237.018029
30
0.000000
0
VERTEX
8
0
10
122.779859
20
237.165108
30
0.000000
0
VERTEX
8
0
10
131.299425
20
237.311445
30
0.000000
0
VERTEX
8
0
10
139.890838
20
237.456683
30
0.000000
0
VERTEX
8
0
10
148.552262
20
237.600469
30
0.000000
0
VERTEX
8
0
10
156.665870
20
237.732533
30
0.000000
0
VERTEX
8
0
10
164.836925
20
237.862750
30
0.000000
0
VERTEX
8
0
10
173.063950
20
237.990836
30
0.000000
0
VERTEX
8
0
10
181.345469
20
238.116506
30
0.000000
0
VERTEX
8
0
10
189.680006
20
238.239476
30
0.000000
0
VERTEX
8
0
10
198.066084
20
238.359461
30
0.000000
0
VERTEX
8
0
10
206.502227
20
238.476176
30
0.000000
0
VERTEX
8
0
10
214.986958
20
238.589336
30
0.000000
0
VERTEX
8
0
10
223.518800
20
238.698657
30
0.000000
0
VERTEX
8
0
10
231.491714
20
238.796597
30
0.000000
0
VERTEX
8
0
10
239.502885
20
238.890745
30
0.000000
0
VERTEX
8
0
10
247.551126
20
238.980870
30
0.000000
0
VERTEX
8
0
10
255.635252
20
239.066744
30
0.000000
0
VERTEX
8
0
10
263.754076
20
239.148139
30
0.000000
0
VERTEX
8
0
10
271.906411
20
239.224825
30
0.000000
0
VERTEX
8
0
10
280.091072
20
239.296573
30
0.000000
0
VERTEX
8
0
10
288.306871
20
239.363156
30
0.000000
0
VERTEX
8
0
10
304.827140
20
239.479907
30
0.000000
0
VERTEX
8
0
10
320.154710
20
239.566841
30
0.000000
0
VERTEX
8
0
10
335.568598
20
239.632445
30
0.000000
42
-0.004896
0
VERTEX
8
0
10
499.763249
20
238.689172
30
0.000000
42
-0.004699
0
VERTEX
8
0
10
608.516511
20
235.923736
30
0.000000
42
-0.006988
0
VERTEX
8
0
10
725.467590
20
230.257096
30
0.000000
42
-0.009921
0
VERTEX
8
0
10
838.858762
20
220.980387
30
0.000000
42
-0.012456
0
VERTEX
8
0
10
932.017379
20
209.166701
30
0.000000
42
-0.013283
0
VERTEX
8
0
10
997.543106
20
197.343326
30
0.000000
42
-0.016453
0
VERTEX
8
0
10
1049.502852
20
184.726401
30
0.000000
42
-0.020883
0
VERTEX
8
0
10
1091.542690
20
171.169547
30
0.000000
42
-0.026054
0
VERTEX
8
0
10
1124.688532
20
156.941311
30
0.000000
42
-0.033285
0
VERTEX
8
0
10
1150.000000
20
142.294982
30
0.000000
0
VERTEX
8
0
10
1150.000000
20
64.294982
30
0.000000
0
SEQEND
8
0
0
ENDBLK
0
BLOCK
8
0
2
*R1
70
1
10
1170.000000
20
103.294982
3
*R1
0
POLYLINE
8
0
6
Continuous
70
0
66
 1
10
0.0
20
0.0
30
0.000000
0
VERTEX
8
0
10
1150.000000
20
142.294982
30
0.000000
0
VERTEX
8
0
10
1150.000000
20
64.294982
30
0.000000
42
0.036907
0
VERTEX
8
0
10
1166.860218
20
66.366178
30
0.000000
42
0.046264
0
VERTEX
8
0
10
1177.744700
20
69.585506
30
0.000000
42
0.062132
0
VERTEX
8
0
10
1184.935524
20
73.548080
30
0.000000
42
0.074875
0
VERTEX
8
0
10
1188.399154
20
77.015393
30
0.000000
42
0.135858
0
VERTEX
8
0
10
1189.989329
20
81.091333
30
0.000000
0
VERTEX
8
0
10
1190.000000
20
81.631086
30
0.000000
0
VERTEX
8
0
10
1190.000000
20
89.672337
30
0.000000
42
0.080572
0
VERTEX
8
0
10
1188.381940
20
98.918168
30
0.000000
42
0.052413
0
VERTEX
8
0
10
1184.317453
20
107.665765
30
0.000000
42
0.040301
0
VERTEX
8
0
10
1177.400057
20
117.383872
30
0.000000
42
0.028507
0
VERTEX
8
0
10
1168.221891
20
127.163220
30
0.000000
42
0.032613
0
VERTEX
8
0
10
1150.000000
20
142.294982
30
0.000000
0
SEQEND
8
0
0
ENDBLK
0
BLOCK
8
Airfoils
2
*B2
70
1
10
950.000000
20
129.472166
3
*B2
0
LINE
8
Airfoils
62
7
6
Continuous
10
949.999999
20
139.536166
30
0.000000
11
949.999999
21
206.279083
31
0.000000
0
LINE
8
Airfoils
62
7
6
Continuous
10
949.999999
20
119.856167
30
0.000000
11
949.999999
21
53.113243
31
0.000000
0
LINE
8
Airfoils
6
Continuous
10
950.970141
20
206.036550
30
0.000000
11
951.940287
21
205.794014
31
0.000000
0
LINE
8
Airfoils
6
Continuous
10
951.000003
20
53.113246
30
0.000000
11
952.000003
21
53.113246
31
0.000000
0
INSERT
8
Airfoils
6
Continuous
2
*B3
10
0.000000
20
0.000000
41
1.000000
42
1.000000
50
0.000000
0
INSERT
8
Airfoils
6
Continuous
2
_CLOSEDFILLED
10
950.000000
20
206.279086
41
8.000000
42
8.000000
50
90.000000
0
INSERT
8
Airfoils
6
Continuous
2
_CLOSEDFILLED
10
950.000000
20
53.113246
41
8.000000
42
8.000000
50
-90.000000
0
POINT
8
Airfoils
6
Continuous
10
950.000000
20
206.279086
0
POINT
8
Airfoils
6
Continuous
10
950.000000
20
53.113246
0
ENDBLK
0
BLOCK
8
Airfoils
2
*B3
70
1
10
0.000000
20
0.000000
3
*B3
0
TEXT
8
Airfoils
6
Continuous
7
Standard
10
950.000000
20
129.696166
72
4
73
0
11
950.000000
21
129.696166
40
9.333333
41
1.000000
50
0.000000
1
153
0
ENDBLK
0
BLOCK
8
Airfoils
2
*B4
70
1
10
475.000000
20
-24.006062
3
*B4
0
LINE
8
Airfoils
62
7
6
Continuous
10
461.239999
20
-23.782062
30
0.000000
11
-0.000015
21
-23.782062
31
0.000000
0
LINE
8
Airfoils
62
7
6
Continuous
10
488.760003
20
-23.782062
30
0.000000
11
950.000016
21
-23.782062
31
0.000000
0
LINE
8
Airfoils
6
Continuous
10
-0.000001
20
-1.000000
30
0.000000
11
-0.000001
21
-25.782061
31
0.000000
0
LINE
8
Airfoils
6
Continuous
10
949.999945
20
0.113246
30
0.000000
11
949.999945
21
-25.782061
31
0.000000
0
INSERT
8
Airfoils
6
Continuous
2
*B5
10
0.000000
20
0.000000
41
1.000000
42
1.000000
50
0.000000
0
INSERT
8
Airfoils
6
Continuous
2
_CLOSEDFILLED
10
-0.000000
20
-23.782062
41
8.000000
42
8.000000
50
180.000000
0
INSERT
8
Airfoils
6
Continuous
2
_CLOSEDFILLED
10
950.000000
20
-23.782062
41
8.000000
42
8.000000
50
0.000000
0
POINT
8
Airfoils
6
Continuous
10
0.000000
20
0.000000
0
POINT
8
Airfoils
6
Continuous
10
950.000000
20
1.113246
0
ENDBLK
0
BLOCK
8
Airfoils
2
*B5
70
1
10
0.000000
20
0.000000
3
*B5
0
TEXT
8
Airfoils
6
Continuous
7
Standard
10
475.000000
20
-23.782062
72
4
73
0
11
475.000000
21
-23.782062
40
9.333333
41
1.000000
50
0.000000
1
950
0
ENDBLK
0
BLOCK
8
Airfoils
2
*B6
70
1
10
33.188067
20
117.276000
3
*B6
0
LINE
8
Airfoils
62
7
6
Continuous
10
33.188066
20
127.340000
30
0.000000
11
33.188066
21
235.000001
31
0.000000
0
LINE
8
Airfoils
62
7
6
Continuous
10
33.188066
20
107.660001
30
0.000000
11
33.188066
21
0.000001
31
0.000000
0
LINE
8
Airfoils
6
Continuous
10
0.999999
20
235.000000
30
0.000000
11
35.188071
21
235.000000
31
0.000000
0
LINE
8
Airfoils
6
Continuous
10
0.999999
20
0.000005
30
0.000000
11
35.188071
21
0.000005
31
0.000000
0
INSERT
8
Airfoils
6
Continuous
2
*B7
10
0.000000
20
0.000000
41
1.000000
42
1.000000
50
0.000000
0
INSERT
8
Airfoils
6
Continuous
2
_CLOSEDFILLED
10
33.188067
20
235.000000
41
8.000000
42
8.000000
50
90.000000
0
INSERT
8
Airfoils
6
Continuous
2
_CLOSEDFILLED
10
33.188067
20
-0.000000
41
8.000000
42
8.000000
50
-90.000000
0
POINT
8
Airfoils
6
Continuous
10
-0.000000
20
235.000000
0
POINT
8
Airfoils
6
Continuous
10
0.000000
20
0.000000
0
ENDBLK
0
BLOCK
8
Airfoils
2
*B7
70
1
10
0.000000
20
0.000000
3
*B7
0
TEXT
8
Airfoils
6
Continuous
7
Standard
10
33.188067
20
117.500000
72
4
73
0
11
33.188067
21
117.500000
40
9.333333
41
1.000000
50
0.000000
1
235
0
ENDBLK
0
BLOCK
8
Airfoils
2
*B8
70
1
10
575.000000
20
-44.531156
3
*B8
0
LINE
8
Airfoils
62
7
6
Continuous
10
557.319999
20
-44.307156
30
0.000000
11
-0.000001
21
-44.307156
31
0.000000
0
LINE
8
Airfoils
62
7
6
Continuous
10
592.680007
20
-44.307156
30
0.000000
11
1149.999999
21
-44.307156
31
0.000000
0
LINE
8
Airfoils
6
Continuous
10
-0.000001
20
-1.000000
30
0.000000
11
-0.000001
21
-46.307154
31
0.000000
0
LINE
8
Airfoils
6
Continuous
10
1149.999945
20
63.294980
30
0.000000
11
1149.999945
21
-46.307154
31
0.000000
0
INSERT
8
Airfoils
6
Continuous
2
*B9
10
0.000000
20
0.000000
41
1.000000
42
1.000000
50
0.000000
0
INSERT
8
Airfoils
6
Continuous
2
_CLOSEDFILLED
10
0.000000
20
-44.307156
41
8.000000
42
8.000000
50
180.000000
0
INSERT
8
Airfoils
6
Continuous
2
_CLOSEDFILLED
10
1150.000000
20
-44.307156
41
8.000000
42
8.000000
50
0.000000
0
POINT
8
Airfoils
6
Continuous
10
0.000000
20
0.000000
0
POINT
8
Airfoils
6
Continuous
10
1150.000000
20
64.294982
0
ENDBLK
0
BLOCK
8
Airfoils
2
*B9
70
1
10
0.000000
20
0.000000
3
*B9
0
TEXT
8
Airfoils
6
Continuous
7
Standard
10
575.000000
20
-44.307156
72
4
73
0
11
575.000000
21
-44.307156
40
9.333333
41
1.000000
50
0.000000
1
1150
0
ENDBLK
0
BLOCK
8
0
2
*R2
70
1
10
-144.984949
20
134.328298
3
*R2
0
POLYLINE
8
0
62
5
6
Continuous
70
0
66
 1
10
0.0
20
0.0
30
0.000000
0
VERTEX
8
0
10
-27.512276
20
131.364742
30
0.000000
42
-0.027038
0
VERTEX
8
0
10
-46.665156
20
131.622029
30
0.000000
42
-0.010281
0
VERTEX
8
0
10
-63.846185
20
133.081602
30
0.000000
42
-0.001988
0
VERTEX
8
0
10
-100.044363
20
136.978374
30
0.000000
42
0.008327
0
VERTEX
8
0
10
-151.575341
20
141.650538
30
0.000000
42
0.012060
0
VERTEX
8
0
10
-188.898075
20
143.483552
30
0.000000
42
0.015315
0
VERTEX
8
0
10
-214.765991
20
143.334828
30
0.000000
42
0.021064
0
VERTEX
8
0
10
-233.864883
20
141.819256
30
0.000000
42
0.027564
0
VERTEX
8
0
10
-247.063679
20
139.460035
30
0.000000
42
0.037443
0
VERTEX
8
0
10
-255.273029
20
136.845800
30
0.000000
42
0.032633
0
VERTEX
8
0
10
-258.702253
20
135.141080
30
0.000000
42
0.080725
0
VERTEX
8
0
10
-261.666218
20
132.741358
30
0.000000
0
VERTEX
8
0
10
-262.198023
20
131.947049
30
0.000000
0
VERTEX
8
0
10
-262.457621
20
131.033470
30
0.000000
0
VERTEX
8
0
10
-262.017210
20
130.217042
30
0.000000
42
0.080080
0
VERTEX
8
0
10
-260.427901
20
129.197753
30
0.000000
42
0.045783
0
VERTEX
8
0
10
-256.833696
20
127.997091
30
0.000000
42
0.031121
0
VERTEX
8
0
10
-248.419882
20
126.572247
30
0.000000
42
0.018013
0
VERTEX
8
0
10
-234.229623
20
125.520203
30
0.000000
42
0.010643
0
VERTEX
8
0
10
-209.566920
20
125.043446
30
0.000000
42
0.005374
0
VERTEX
8
0
10
-177.309444
20
125.364817
30
0.000000
42
0.005085
0
VERTEX
8
0
10
-62.563040
20
128.936129
30
0.000000
42
0.005825
0
VERTEX
8
0
10
-27.512276
20
130.764742
30
0.000000
0
VERTEX
8
0
10
-27.512276
20
131.364742
30
0.000000
0
SEQEND
8
0
0
ENDBLK
0
BLOCK
8
0
2
*R3
70
1
10
-246.457988
20
132.264742
3
*R3
0
POLYLINE
8
0
6
Continuous
70
0
66
 1
10
0.0
20
0.0
30
0.000000
0
VERTEX
8
0
10
-243.957988
20
132.264742
30
0.000000
42
0.956109
0
VERTEX
8
0
10
-248.947930
20
132.488780
30
0.000000
42
1.045905
0
VERTEX
8
0
10
-243.957988
20
132.264742
30
0.000000
0
SEQEND
8
0
0
ENDBLK
0
BLOCK
8
0
2
*R4
70
1
10
-144.984949
20
134.328298
3
*R4
0
POLYLINE
8
0
6
Continuous
70
0
66
 1
10
0.0
20
0.0
30
0.000000
0
VERTEX
8
0
10
-27.512276
20
131.364742
30
0.000000
42
-0.027038
0
VERTEX
8
0
10
-46.665156
20
131.622029
30
0.000000
42
-0.010281
0
VERTEX
8
0
10
-63.846185
20
133.081602
30
0.000000
42
-0.001988
0
VERTEX
8
0
10
-100.044363
20
136.978374
30
0.000000
42
0.008327
0
VERTEX
8
0
10
-151.575341
20
141.650538
30
0.000000
42
0.012060
0
VERTEX
8
0
10
-188.898075
20
143.483552
30
0.000000
42
0.015315
0
VERTEX
8
0
10
-214.765991
20
143.334828
30
0.000000
42
0.021064
0
VERTEX
8
0
10
-233.864883
20
141.819256
30
0.000000
42
0.027564
0
VERTEX
8
0
10
-247.063679
20
139.460035
30
0.000000
42
0.037443
0
VERTEX
8
0
10
-255.273029
20
136.845800
30
0.000000
42
0.032633
0
VERTEX
8
0
10
-258.702253
20
135.141080
30
0.000000
42
0.080725
0
VERTEX
8
0
10
-261.666218
20
132.741358
30
0.000000
0
VERTEX
8
0
10
-262.198023
20
131.947049
30
0.000000
0
VERTEX
8
0
10
-262.457621
20
131.033470
30
0.000000
0
VERTEX
8
0
10
-262.017210
20
130.217042
30
0.000000
42
0.080080
0
VERTEX
8
0
10
-260.427901
20
129.197753
30
0.000000
42
0.045783
0
VERTEX
8
0
10
-256.833696
20
127.997091
30
0.000000
42
0.031121
0
VERTEX
8
0
10
-248.419882
20
126.572247
30
0.000000
42
0.018013
0
VERTEX
8
0
10
-234.229623
20
125.520203
30
0.000000
42
0.010643
0
VERTEX
8
0
10
-209.566920
20
125.043446
30
0.000000
42
0.005374
0
VERTEX
8
0
10
-177.309444
20
125.364817
30
0.000000
42
0.005085
0
VERTEX
8
0
10
-62.563040
20
128.936129
30
0.000000
42
0.005825
0
VERTEX
8
0
10
-27.512276
20
130.764742
30
0.000000
0
VERTEX
8
0
10
-27.512276
20
131.364742
30
0.000000
0
SEQEND
8
0
0
ENDBLK
0
BLOCK
8
0
2
*R5
70
1
10
-205.657988
20
135.315059
3
*R5
0
POLYLINE
8
0
6
Continuous
70
0
66
 1
10
0.0
20
0.0
30
0.000000
0
VERTEX
8
0
10
-200.657988
20
135.315059
30
0.000000
42
1.000000
0
VERTEX
8
0
10
-210.657988
20
135.315059
30
0.000000
42
1.000000
0
VERTEX
8
0
10
-200.657988
20
135.315059
30
0.000000
0
SEQEND
8
0
0
ENDBLK
0
BLOCK
8
0
2
*R6
70
1
10
-191.257988
20
135.341958
3
*R6
0
POLYLINE
8
0
6
Continuous
70
0
66
 1
10
0.0
20
0.0
30
0.000000
0
VERTEX
8
0
10
-186.257988
20
135.341958
30
0.000000
42
1.000000
0
VERTEX
8
0
10
-196.257988
20
135.341958
30
0.000000
42
1.000000
0
VERTEX
8
0
10
-186.257988
20
135.341958
30
0.000000
0
SEQEND
8
0
0
ENDBLK
0
BLOCK
8
0
2
*R7
70
1
10
-162.457988
20
134.062662
3
*R7
0
POLYLINE
8
0
6
Continuous
70
0
66
 1
10
0.0
20
0.0
30
0.000000
0
VERTEX
8
0
10
-170.457988
20
130.562662
30
0.000000
0
VERTEX
8
0
10
-154.457988
20
130.562662
30
0.000000
0
VERTEX
8
0
10
-154.457988
20
137.562662
30
0.000000
0
VERTEX
8
0
10
-170.457988
20
137.562662
30
0.000000
0
VERTEX
8
0
10
-170.457988
20
130.562662
30
0.000000
0
SEQEND
8
0
0
ENDBLK
0
BLOCK
8
0
2
*B10
70
1
10
-81.972033
20
148.043018
3
*B10
0
LINE
8
0
62
7
6
Continuous
10
-98.596688
20
134.591522
30
0.000000
11
-93.272035
21
148.123018
31
0.000000
0
LINE
8
0
62
7
6
Continuous
10
-93.272035
20
148.123018
30
0.000000
11
-89.272035
21
148.123018
31
0.000000
0
LINE
8
0
6
Continuous
10
-101.512278
20
132.264742
30
0.000000
11
-97.512278
21
132.264742
31
0.000000
0
LINE
8
0
6
Continuous
10
-99.512278
20
130.264742
30
0.000000
11
-99.512278
21
134.264742
31
0.000000
0
INSERT
8
0
6
Continuous
2
*B11
10
0.000000
20
0.000000
41
1.000000
42
1.000000
50
0.000000
0
INSERT
8
0
6
Continuous
2
_CLOSEDFILLED
10
-98.596687
20
134.591522
41
2.000000
42
2.000000
50
248.520327
0
POINT
8
0
6
Continuous
10
-98.596687
20
134.591522
0
ENDBLK
0
BLOCK
8
0
2
*B11
70
1
10
0.000000
20
0.000000
3
*B11
0
TEXT
8
0
6
Continuous
7
Standard
10
-81.972033
20
148.123018
72
4
73
0
11
-81.972033
21
148.123018
40
3.333333
41
1.000000
50
0.000000
1
R2.5
0
ENDBLK
0
BLOCK
8
0
2
*R8
70
1
10
-99.512276
20
132.264742
3
*R8
0
POLYLINE
8
0
6
Continuous
70
0
66
 1
10
0.0
20
0.0
30
0.000000
0
VERTEX
8
0
10
-97.012276
20
132.264742
30
0.000000
42
1.000000
0
VERTEX
8
0
10
-102.012276
20
132.264742
30
0.000000
42
1.000000
0
VERTEX
8
0
10
-97.012276
20
132.264742
30
0.000000
0
SEQEND
8
0
0
ENDBLK
0
BLOCK
8
0
2
*B12
70
1
10
-171.463367
20
154.922034
3
*B12
0
LINE
8
0
62
7
6
Continuous
10
-189.274816
20
139.931841
30
0.000000
11
-182.763367
21
155.002035
31
0.000000
0
LINE
8
0
62
7
6
Continuous
10
-182.763367
20
155.002035
30
0.000000
11
-178.763367
21
155.002035
31
0.000000
0
LINE
8
0
6
Continuous
10
-193.257988
20
135.341958
30
0.000000
11
-189.257988
21
135.341958
31
0.000000
0
LINE
8
0
6
Continuous
10
-191.257988
20
133.341958
30
0.000000
11
-191.257988
21
137.341958
31
0.000000
0
INSERT
8
0
6
Continuous
2
*B13
10
0.000000
20
0.000000
41
1.000000
42
1.000000
50
0.000000
0
INSERT
8
0
6
Continuous
2
_CLOSEDFILLED
10
-189.274816
20
139.931841
41
2.000000
42
2.000000
50
246.632050
0
POINT
8
0
6
Continuous
10
-189.274816
20
139.931841
0
ENDBLK
0
BLOCK
8
0
2
*B13
70
1
10
0.000000
20
0.000000
3
*B13
0
TEXT
8
0
6
Continuous
7
Standard
10
-171.463367
20
155.002034
72
4
73
0
11
-171.463367
21
155.002034
40
3.333333
41
1.000000
50
0.000000
1
R5.0
0
ENDBLK
0
BLOCK
8
0
2
*B14
70
1
10
-230.168420
20
147.987929
3
*B14
0
LINE
8
0
62
7
6
Continuous
10
-245.705285
20
134.648738
30
0.000000
11
-241.468420
21
148.067929
31
0.000000
0
LINE
8
0
62
7
6
Continuous
10
-241.468420
20
148.067929
30
0.000000
11
-237.468420
21
148.067929
31
0.000000
0
LINE
8
0
6
Continuous
10
-248.457988
20
132.264742
30
0.000000
11
-244.457988
21
132.264742
31
0.000000
0
LINE
8
0
6
Continuous
10
-246.457988
20
130.264742
30
0.000000
11
-246.457988
21
134.264742
31
0.000000
0
INSERT
8
0
6
Continuous
2
*B15
10
0.000000
20
0.000000
41
1.000000
42
1.000000
50
0.000000
0
INSERT
8
0
6
Continuous
2
_CLOSEDFILLED
10
-245.705285
20
134.648738
41
2.000000
42
2.000000
50
252.477437
0
POINT
8
0
6
Continuous
10
-245.705285
20
134.648738
0
ENDBLK
0
BLOCK
8
0
2
*B15
70
1
10
0.000000
20
0.000000
3
*B15
0
TEXT
8
0
6
Continuous
7
Standard
10
-230.168420
20
148.067929
72
4
73
0
11
-230.168420
21
148.067929
40
3.333333
41
1.000000
50
0.000000
1
R2.5
0
ENDBLK
0
BLOCK
8
Airfoils
2
*B16
70
1
10
-137.793366
20
104.850211
3
*B16
0
LINE
8
Airfoils
62
7
6
Continuous
10
-162.586680
20
130.285718
30
0.000000
11
-156.518367
21
105.425211
31
0.000000
0
INSERT
8
Airfoils
6
Continuous
2
*B17
10
0.000000
20
0.000000
41
1.000000
42
1.000000
50
0.000000
0
INSERT
8
Airfoils
6
Continuous
2
_CLOSEDFILLED
10
-162.586679
20
130.285718
41
2.000000
42
2.000000
50
103.717346
0
POLYLINE
8
Airfoils
6
Continuous
70
0
66
 1
10
0.0
20
0.0
30
0.000000
0
VERTEX
8
Airfoils
10
-162.586679
20
130.285718
30
0.000000
0
VERTEX
8
Airfoils
10
-156.518366
20
105.425211
30
0.000000
0
SEQEND
8
0
0
ENDBLK
0
BLOCK
8
Airfoils
2
*B17
70
1
10
0.000000
20
0.000000
3
*B17
0
TEXT
8
Airfoils
6
Continuous
7
Standard
10
-154.518366
20
105.425211
72
0
73
2
11
-154.518366
21
105.425211
40
3.333333
41
1.000000
50
0.000000
1
Multiplex plug
0
ENDBLK
0
BLOCK
8
Airfoils
2
*B18
70
1
10
-180.949827
20
102.924724
3
*B18
0
LINE
8
Airfoils
62
7
6
Continuous
10
-205.657990
20
130.315059
30
0.000000
11
-201.149826
21
106.599724
31
0.000000
0
INSERT
8
Airfoils
6
Continuous
2
*B19
10
0.000000
20
0.000000
41
1.000000
42
1.000000
50
0.000000
0
INSERT
8
Airfoils
6
Continuous
2
*B20
10
0.000000
20
0.000000
41
1.000000
42
1.000000
50
0.000000
0
INSERT
8
Airfoils
6
Continuous
2
_CLOSEDFILLED
10
-205.657988
20
130.315059
41
2.000000
42
2.000000
50
100.763209
0
POLYLINE
8
Airfoils
6
Continuous
70
0
66
 1
10
0.0
20
0.0
30
0.000000
0
VERTEX
8
Airfoils
10
-205.657988
20
130.315059
30
0.000000
0
VERTEX
8
Airfoils
10
-201.149827
20
106.599724
30
0.000000
0
SEQEND
8
0
0
ENDBLK
0
BLOCK
8
Airfoils
2
*B19
70
1
10
0.000000
20
0.000000
3
*B19
0
TEXT
8
Airfoils
6
Continuous
7
Standard
10
-199.149827
20
106.599724
72
0
73
2
11
-199.149827
21
106.599724
40
3.333333
41
1.000000
50
0.000000
1
Double wing
0
ENDBLK
0
BLOCK
8
Airfoils
2
*B20
70
1
10
0.000000
20
0.000000
3
*B20
0
TEXT
8
Airfoils
6
Continuous
7
Standard
10
-199.149827
20
100.399724
72
0
73
2
11
-199.149827
21
100.399724
40
3.333333
41
1.000000
50
0.000000
1
connector rods
0
ENDBLK
0
BLOCK
8
Airfoils
2
*B21
70
1
10
-79.231479
20
105.437467
3
*B21
0
LINE
8
Airfoils
62
7
6
Continuous
10
-99.512278
20
129.764742
30
0.000000
11
-94.856478
21
106.012468
31
0.000000
0
INSERT
8
Airfoils
6
Continuous
2
*B22
10
0.000000
20
0.000000
41
1.000000
42
1.000000
50
0.000000
0
INSERT
8
Airfoils
6
Continuous
2
_CLOSEDFILLED
10
-99.512276
20
129.764742
41
2.000000
42
2.000000
50
101.090211
0
POLYLINE
8
Airfoils
6
Continuous
70
0
66
 1
10
0.0
20
0.0
30
0.000000
0
VERTEX
8
Airfoils
10
-99.512276
20
129.764742
30
0.000000
0
VERTEX
8
Airfoils
10
-94.856479
20
106.012467
30
0.000000
0
SEQEND
8
0
0
ENDBLK
0
BLOCK
8
Airfoils
2
*B22
70
1
10
0.000000
20
0.000000
3
*B22
0
TEXT
8
Airfoils
6
Continuous
7
Standard
10
-92.856479
20
106.012467
72
0
73
2
11
-92.856479
21
106.012467
40
3.333333
41
1.000000
50
0.000000
1
Torsion pin
0
ENDBLK
0
BLOCK
8
Airfoils
2
*R9
70
1
10
-219.457988
20
134.082863
3
*R9
0
POLYLINE
8
Airfoils
6
Continuous
70
0
66
 1
10
0.0
20
0.0
30
0.000000
0
VERTEX
8
Airfoils
10
-224.457988
20
139.082863
30
0.000000
0
VERTEX
8
Airfoils
10
-214.457988
20
139.082863
30
0.000000
0
VERTEX
8
Airfoils
10
-214.457988
20
129.082863
30
0.000000
0
VERTEX
8
Airfoils
10
-224.457988
20
129.082863
30
0.000000
0
VERTEX
8
Airfoils
10
-224.457988
20
139.082863
30
0.000000
0
SEQEND
8
0
0
ENDBLK
0
BLOCK
8
Airfoils
2
*B23
70
1
10
-250.479302
20
103.288575
3
*B23
0
LINE
8
Airfoils
62
7
6
Continuous
10
-220.448291
20
128.771893
30
0.000000
11
-228.929301
21
106.963575
31
0.000000
0
INSERT
8
Airfoils
6
Continuous
2
*B24
10
0.000000
20
0.000000
41
1.000000
42
1.000000
50
0.000000
0
INSERT
8
Airfoils
6
Continuous
2
*B25
10
0.000000
20
0.000000
41
1.000000
42
1.000000
50
0.000000
0
INSERT
8
Airfoils
6
Continuous
2
_CLOSEDFILLED
10
-220.448289
20
128.771893
41
2.000000
42
2.000000
50
68.749494
0
POLYLINE
8
Airfoils
6
Continuous
70
0
66
 1
10
0.0
20
0.0
30
0.000000
0
VERTEX
8
Airfoils
10
-220.448289
20
128.771893
30
0.000000
0
VERTEX
8
Airfoils
10
-228.929302
20
106.963575
30
0.000000
0
SEQEND
8
0
0
ENDBLK
0
BLOCK
8
Airfoils
2
*B24
70
1
10
0.000000
20
0.000000
3
*B24
0
TEXT
8
Airfoils
6
Continuous
7
Standard
10
-230.929302
20
106.963575
72
2
73
2
11
-230.929302
21
106.963575
40
3.333333
41
1.000000
50
0.000000
1
Ballast
0
ENDBLK
0
BLOCK
8
Airfoils
2
*B25
70
1
10
0.000000
20
0.000000
3
*B25
0
TEXT
8
Airfoils
6
Continuous
7
Standard
10
-230.929302
20
100.763575
72
2
73
2
11
-230.929302
21
100.763575
40
3.333333
41
1.000000
50
0.000000
1
10x10mm brass
0
ENDBLK
0
BLOCK
8
Airfoils
2
*B26
70
1
10
-212.315781
20
160.642863
3
*B26
0
LINE
8
Airfoils
62
5
6
Continuous
10
-218.457623
20
135.319533
30
0.000000
11
-218.440785
21
161.217863
31
0.000000
0
INSERT
8
Airfoils
62
5
6
Continuous
2
*B27
10
0.000000
20
0.000000
41
1.000000
42
1.000000
50
0.000000
0
INSERT
8
Airfoils
62
5
6
Continuous
2
_CLOSEDFILLED
10
-218.457621
20
135.319533
41
2.000000
42
2.000000
50
269.962744
0
POLYLINE
8
Airfoils
62
5
6
Continuous
70
0
66
 1
10
0.0
20
0.0
30
0.000000
0
VERTEX
8
Airfoils
10
-218.457621
20
135.319533
30
0.000000
0
VERTEX
8
Airfoils
10
-218.440781
20
161.217863
30
0.000000
0
SEQEND
8
0
0
ENDBLK
0
BLOCK
8
Airfoils
2
*B27
70
1
10
0.000000
20
0.000000
3
*B27
0
TEXT
8
Airfoils
62
5
6
Continuous
7
Standard
10
-216.440781
20
161.217863
72
0
73
2
11
-216.440781
21
161.217863
40
3.333333
41
1.000000
50
0.000000
1
CG
0
ENDBLK
0
ENDSEC
0
SECTION
2
ENTITIES
0
POLYLINE
8
0
6
Continuous
70
0
66
 1
10
0.0
20
0.0
30
0.000000
0
VERTEX
8
0
10
1150.000000
20
142.294982
30
0.000000
0
VERTEX
8
0
10
1151.274556
20
141.356881
30
0.000000
0
VERTEX
8
0
10
1152.621145
20
140.348985
30
0.000000
0
VERTEX
8
0
10
1154.032407
20
139.273717
30
0.000000
0
VERTEX
8
0
10
1155.500979
20
138.133499
30
0.000000
0
VERTEX
8
0
10
1157.019499
20
136.930754
30
0.000000
0
VERTEX
8
0
10
1158.580606
20
135.667903
30
0.000000
0
VERTEX
8
0
10
1160.176938
20
134.347368
30
0.000000
0
VERTEX
8
0
10
1161.801133
20
132.971574
30
0.000000
0
VERTEX
8
0
10
1163.445829
20
131.542940
30
0.000000
0
VERTEX
8
0
10
1165.831219
20
129.401572
30
0.000000
0
VERTEX
8
0
10
1168.221891
20
127.163220
30
0.000000
0
VERTEX
8
0
10
1170.595979
20
124.835078
30
0.000000
0
VERTEX
8
0
10
1172.931615
20
122.424343
30
0.000000
0
VERTEX
8
0
10
1175.206930
20
119.938209
30
0.000000
0
VERTEX
8
0
10
1177.400057
20
117.383872
30
0.000000
0
VERTEX
8
0
10
1178.458965
20
116.083376
30
0.000000
0
VERTEX
8
0
10
1179.489127
20
114.768528
30
0.000000
0
VERTEX
8
0
10
1180.487807
20
113.440226
30
0.000000
0
VERTEX
8
0
10
1181.511353
20
112.015172
30
0.000000
0
VERTEX
8
0
10
1182.492995
20
110.577024
30
0.000000
0
VERTEX
8
0
10
1183.429455
20
109.126862
30
0.000000
0
VERTEX
8
0
10
1184.317453
20
107.665765
30
0.000000
0
VERTEX
8
0
10
1185.153712
20
106.194811
30
0.000000
0
VERTEX
8
0
10
1185.934952
20
104.715080
30
0.000000
0
VERTEX
8
0
10
1186.657894
20
103.227650
30
0.000000
0
VERTEX
8
0
10
1187.319260
20
101.733599
30
0.000000
0
VERTEX
8
0
10
1187.915772
20
100.234008
30
0.000000
0
VERTEX
8
0
10
1188.381940
20
98.918168
30
0.000000
0
VERTEX
8
0
10
1188.793747
20
97.599635
30
0.000000
0
VERTEX
8
0
10
1189.148997
20
96.279130
30
0.000000
0
VERTEX
8
0
10
1189.445492
20
94.957377
30
0.000000
0
VERTEX
8
0
10
1189.681036
20
93.635099
30
0.000000
0
VERTEX
8
0
10
1189.853433
20
92.313017
30
0.000000
0
VERTEX
8
0
10
1189.960487
20
90.991856
30
0.000000
0
VERTEX
8
0
10
1190.000000
20
89.672337
30
0.000000
0
SEQEND
8
0
0
POLYLINE
8
0
6
Continuous
70
0
66
 1
10
0.0
20
0.0
30
0.000000
0
VERTEX
8
0
10
1150.000000
20
64.294982
30
0.000000
0
VERTEX
8
0
10
1152.737039
20
64.469667
30
0.000000
0
VERTEX
8
0
10
1155.361890
20
64.688095
30
0.000000
0
VERTEX
8
0
10
1157.876180
20
64.948262
30
0.000000
0
VERTEX
8
0
10
1160.281533
20
65.248159
30
0.000000
0
VERTEX
8
0
10
1162.579574
20
65.585782
30
0.000000
0
VERTEX
8
0
10
1164.771927
20
65.959124
30
0.000000
0
VERTEX
8
0
10
1166.860218
20
66.366178
30
0.000000
0
VERTEX
8
0
10
1168.846072
20
66.804939
30
0.000000
0
VERTEX
8
0
10
1170.731113
20
67.273401
30
0.000000
0
VERTEX
8
0
10
1172.024626
20
67.627330
30
0.000000
0
VERTEX
8
0
10
1173.267502
20
67.994821
30
0.000000
0
VERTEX
8
0
10
1174.460344
20
68.375129
30
0.000000
0
VERTEX
8
0
10
1175.603756
20
68.767509
30
0.000000
0
VERTEX
8
0
10
1176.698340
20
69.171216
30
0.000000
0
VERTEX
8
0
10
1177.744700
20
69.585506
30
0.000000
0
VERTEX
8
0
10
1178.743440
20
70.009633
30
0.000000
0
VERTEX
8
0
10
1179.695163
20
70.442852
30
0.000000
0
VERTEX
8
0
10
1180.600472
20
70.884419
30
0.000000
0
VERTEX
8
0
10
1181.821749
20
71.532301
30
0.000000
0
VERTEX
8
0
10
1182.950156
20
72.193680
30
0.000000
0
VERTEX
8
0
10
1183.987483
20
72.866344
30
0.000000
0
VERTEX
8
0
10
1184.935524
20
73.548080
30
0.000000
0
VERTEX
8
0
10
1185.796071
20
74.236675
30
0.000000
0
VERTEX
8
0
10
1186.570915
20
74.929916
30
0.000000
0
VERTEX
8
0
10
1187.261848
20
75.625592
30
0.000000
0
VERTEX
8
0
10
1187.870664
20
76.321488
30
0.000000
0
VERTEX
8
0
10
1188.399154
20
77.015393
30
0.000000
0
VERTEX
8
0
10
1188.797099
20
77.619186
30
0.000000
0
VERTEX
8
0
10
1189.136117
20
78.218277
30
0.000000
0
VERTEX
8
0
10
1189.417410
20
78.811185
30
0.000000
0
VERTEX
8
0
10
1189.642176
20
79.396427
30
0.000000
0
VERTEX
8
0
10
1189.811618
20
79.972521
30
0.000000
0
VERTEX
8
0
10
1189.926935
20
80.537983
30
0.000000
0
VERTEX
8
0
10
1189.989329
20
81.091333
30
0.000000
0
VERTEX
8
0
10
1190.000000
20
81.631086
30
0.000000
0
SEQEND
8
0
0
LINE
8
0
6
Continuous
10
-0.000000
20
235.000000
30
0.000000
11
0.000000
21
0.000000
31
0.000000
0
LINE
8
0
6
Continuous
10
1190.000000
20
89.672337
30
0.000000
11
1190.000000
21
81.631086
31
0.000000
0
LINE
8
Airfoils
6
Continuous
10
1150.000000
20
259.425037
30
0.000000
11
1150.000000
21
157.256087
31
0.000000
0
DIMENSION
8
Airfoils
6
Continuous
3
Jo_Gross
2
*B
10
1134.489634
20
142.294982
30
0.000000
11
1134.489634
21
103.294982
31
0.000000
70
0
13
1150.000000
23
64.294982
33
0.000000
14
1150.000000
24
142.294982
34
0.000000
50
90.000000
1001
ACAD
1000
DTSYLE
1002
{
1070
5
1000
CLOSEDFILLED
1070
6
1000
CLOSEDFILLED
1070
7
1000
CLOSEDFILLED
1070
176
1070
-2.000000
1070
371
1070
0.000000
1070
372
1070
0.000000
1070
271
1070
0.000000
1070
41
1040
8.000000
1070
140
1040
14.000000
1002
}
0
INSERT
8
0
6
Continuous
2
*R
10
575.000000
20
119.850555
41
1.000000
42
1.000000
50
0.000000
0
INSERT
8
0
6
Continuous
2
*R1
10
1170.000000
20
103.294982
41
1.000000
42
1.000000
50
0.000000
0
DIMENSION
8
Airfoils
6
Continuous
3
Jo_Gross
2
*B2
10
950.000000
20
53.113246
30
0.000000
11
950.000000
21
129.696166
31
0.000000
70
0
13
950.000000
23
206.279086
33
0.000000
14
950.000000
24
53.113246
34
0.000000
50
90.000000
1001
ACAD
1000
DTSYLE
1002
{
1070
5
1000
CLOSEDFILLED
1070
6
1000
CLOSEDFILLED
1070
7
1000
CLOSEDFILLED
1070
176
1070
-2.000000
1070
371
1070
0.000000
1070
372
1070
0.000000
1070
271
1070
0.000000
1070
41
1040
8.000000
1070
140
1040
14.000000
1002
}
0
TEXT
8
Airfoils
6
Continuous
7
Standard
10
936.067582
20
268.472173
72
76
73
208
11
936.067582
21
268.472173
40
9.333333
41
1.000000
50
0.000000
1
JX-RS
0
TEXT
8
Airfoils
6
Continuous
7
Standard
10
1126.167554
20
267.300801
72
162
73
50
11
1126.167554
21
267.300801
40
9.333333
41
1.000000
50
0.000000
1
JX-RS-Tip
0
TEXT
8
Airfoils
6
Continuous
7
Standard
10
-21.415658
20
269.209564
72
2
73
152
11
-21.415658
21
269.209564
40
9.333333
41
1.000000
50
0.000000
1
JX-RS-Root
0
DIMENSION
8
Airfoils
6
Continuous
3
Jo_Gross
2
*B4
10
950.000000
20
-23.782062
30
0.000000
11
475.000000
21
-23.782062
31
0.000000
70
0
13
0.000000
23
0.000000
33
0.000000
14
950.000000
24
1.113246
34
0.000000
50
0.000000
1001
ACAD
1000
DTSYLE
1002
{
1070
5
1000
CLOSEDFILLED
1070
6
1000
CLOSEDFILLED
1070
7
1000
CLOSEDFILLED
1070
176
1070
-2.000000
1070
371
1070
0.000000
1070
372
1070
0.000000
1070
271
1070
0.000000
1070
41
1040
8.000000
1070
140
1040
14.000000
1002
}
0
LINE
8
Airfoils
6
Continuous
10
950.000000
20
258.889829
30
0.000000
11
950.000000
21
216.351648
31
0.000000
0
LINE
8
Airfoils
6
Continuous
10
-0.462735
20
261.054676
30
0.000000
11
-0.462735
21
239.785585
31
0.000000
0
TEXT
8
0
62
8
6
Continuous
7
Standard
10
853.296790
20
123.606684
72
76
73
208
11
853.296790
21
123.606684
40
9.333333
41
1.000000
50
0.000000
1
Re*Sqrt(cl)
0
TEXT
8
0
62
8
6
Continuous
7
Standard
10
887.459666
20
104.073786
72
128
73
91
11
887.459666
21
104.073786
40
9.333333
41
1.000000
50
0.000000
1
75000
0
TEXT
8
0
62
8
6
Continuous
7
Standard
10
1047.080120
20
99.192868
72
0
73
34
11
1047.080120
21
99.192868
40
9.333333
41
1.000000
50
0.000000
1
Re*Sqrt(cl)
0
TEXT
8
0
62
8
6
Continuous
7
Standard
10
1080.757819
20
78.012131
72
0
73
192
11
1080.757819
21
78.012131
40
9.333333
41
1.000000
50
0.000000
1
40000
0
DIMENSION
8
Airfoils
6
Continuous
3
Jo_Gross
2
*B6
10
33.188067
20
-0.000000
30
0.000000
11
33.188067
21
117.500000
31
0.000000
70
0
13
-0.000000
23
235.000000
33
0.000000
14
0.000000
24
0.000000
34
0.000000
50
90.000000
1001
ACAD
1000
DTSYLE
1002
{
1070
5
1000
CLOSEDFILLED
1070
6
1000
CLOSEDFILLED
1070
7
1000
CLOSEDFILLED
1070
176
1070
-2.000000
1070
371
1070
0.000000
1070
372
1070
0.000000
1070
271
1070
0.000000
1070
41
1040
8.000000
1070
140
1040
14.000000
1002
}
0
TEXT
8
0
62
8
6
Continuous
7
Standard
10
51.098321
20
111.809890
72
76
73
208
11
51.098321
21
111.809890
40
9.333333
41
1.000000
50
0.000000
1
Re*Sqrt(cl)
0
TEXT
8
0
62
8
6
Continuous
7
Standard
10
52.140824
20
89.958567
72
0
73
115
11
52.140824
21
89.958567
40
9.333333
41
1.000000
50
0.000000
1
120000
0
DIMENSION
8
Airfoils
6
Continuous
3
Jo_Gross
2
*B8
10
1150.000000
20
-44.307156
30
0.000000
11
575.000000
21
-44.307156
31
0.000000
70
0
13
0.000000
23
0.000000
33
0.000000
14
1150.000000
24
64.294982
34
0.000000
50
0.000000
1001
ACAD
1000
DTSYLE
1002
{
1070
5
1000
CLOSEDFILLED
1070
6
1000
CLOSEDFILLED
1070
7
1000
CLOSEDFILLED
1070
176
1070
-2.000000
1070
371
1070
0.000000
1070
372
1070
0.000000
1070
271
1070
0.000000
1070
41
1040
8.000000
1070
140
1040
14.000000
1002
}
0
TEXT
8
Airfoils
62
8
6
Continuous
7
Standard
10
248.953806
20
126.041681
72
76
73
208
11
248.953806
21
126.041681
40
12.000000
41
1.000000
50
0.000000
1
Airfoil sections and corresponding Re number
0
INSERT
8
0
62
5
6
Continuous
2
*R2
10
-144.984949
20
134.328298
41
1.000000
42
1.000000
50
0.000000
0
INSERT
8
0
6
Continuous
2
*R3
10
-246.457988
20
132.264742
41
1.000000
42
1.000000
50
0.000000
0
INSERT
8
0
6
Continuous
2
*R4
10
-144.984949
20
134.328298
41
1.000000
42
1.000000
50
0.000000
0
INSERT
8
0
6
Continuous
2
*R5
10
-205.657988
20
135.315059
41
1.000000
42
1.000000
50
0.000000
0
INSERT
8
0
6
Continuous
2
*R6
10
-191.257988
20
135.341958
41
1.000000
42
1.000000
50
0.000000
0
INSERT
8
0
6
Continuous
2
*R7
10
-162.457988
20
134.062662
41
1.000000
42
1.000000
50
0.000000
0
LINE
8
0
62
1
6
Continuous
10
-271.100705
20
131.033470
30
0.000000
11
-13.078344
21
131.033470
31
0.000000
0
DIMENSION
8
0
6
Continuous
2
*B10
10
-99.512276
20
132.264742
30
0.000000
11
-81.972033
21
148.123018
31
0.000000
70
132
15
-98.596687
25
134.591522
35
0.000000
1001
ACAD
1000
DTSYLE
1002
{
1070
5
1000
CLOSEDFILLED
1070
6
1000
CLOSEDFILLED
1070
7
1000
CLOSEDFILLED
1070
176
1070
-2.000000
1070
371
1070
0.000000
1070
372
1070
0.000000
1070
271
1070
1.000000
1002
}
0
INSERT
8
0
6
Continuous
2
*R8
10
-99.512276
20
132.264742
41
1.000000
42
1.000000
50
0.000000
0
DIMENSION
8
0
6
Continuous
2
*B12
10
-191.257988
20
135.341958
30
0.000000
11
-171.463367
21
155.002034
31
0.000000
70
132
15
-189.274816
25
139.931841
35
0.000000
1001
ACAD
1000
DTSYLE
1002
{
1070
5
1000
CLOSEDFILLED
1070
6
1000
CLOSEDFILLED
1070
7
1000
CLOSEDFILLED
1070
176
1070
-2.000000
1070
371
1070
0.000000
1070
372
1070
0.000000
1070
271
1070
1.000000
1002
}
0
POINT
8
0
62
5
6
Continuous
10
-218.457621
20
135.319533
0
DIMENSION
8
0
6
Continuous
2
*B14
10
-246.457988
20
132.264742
30
0.000000
11
-230.168420
21
148.067929
31
0.000000
70
132
15
-245.705285
25
134.648738
35
0.000000
1001
ACAD
1000
DTSYLE
1002
{
1070
5
1000
CLOSEDFILLED
1070
6
1000
CLOSEDFILLED
1070
7
1000
CLOSEDFILLED
1070
176
1070
-2.000000
1070
371
1070
0.000000
1070
372
1070
0.000000
1070
271
1070
1.000000
1002
}
0
INSERT
8
Airfoils
6
Continuous
2
*B16
10
-137.793366
20
104.850211
41
1.000000
42
1.000000
50
0.000000
0
INSERT
8
Airfoils
6
Continuous
2
*B18
10
-180.949827
20
102.924724
41
1.000000
42
1.000000
50
0.000000
0
INSERT
8
Airfoils
6
Continuous
2
*B21
10
-79.231479
20
105.437467
41
1.000000
42
1.000000
50
0.000000
0
INSERT
8
Airfoils
6
Continuous
2
*R9
10
-219.457988
20
134.082863
41
1.000000
42
1.000000
50
0.000000
0
INSERT
8
Airfoils
6
Continuous
2
*B23
10
-250.479302
20
103.288575
41
1.000000
42
1.000000
50
0.000000
0
INSERT
8
Airfoils
62
5
6
Continuous
2
*B26
10
-212.315781
20
160.642863
41
1.000000
42
1.000000
50
0.000000
0
TEXT
8
Airfoils
62
8
6
Continuous
7
Standard
10
248.248589
20
149.473528
72
76
73
208
11
248.248589
21
149.473528
40
12.000000
41
1.000000
50
0.000000
1
Wing outline with
0
ENDSEC
0
EOF
